<svg xmlns="http://www.w3.org/2000/svg" width="17" height="16" viewBox="0 0 17 16" fill="none">
  <g clip-path="url(#clip0_172_825)">
    <path fill-rule="evenodd" clip-rule="evenodd" d="M14.8003 10.2344C14.273 5.10283 2.70603 1.89562 2.60889 1.73706C2.71991 2.31364 3.01134 3.04157 3.44154 3.82715C3.99664 3.94967 4.55174 4.0794 5.09991 4.22355C6.34889 4.54787 7.58399 4.95147 8.79134 5.44156C9.99174 5.93886 11.1713 6.52265 12.226 7.31544C12.7464 7.71183 13.246 8.15868 13.6624 8.6776C14.0232 9.13886 14.3215 9.66499 14.4811 10.2271C14.5436 10.256 14.5991 10.2848 14.6615 10.3136C14.8003 10.3785 14.8142 10.3785 14.8003 10.2344Z" fill="#009640"/>
    <path fill-rule="evenodd" clip-rule="evenodd" d="M14.2244 10.2846C14.2383 10.2702 14.2105 10.263 14.1966 10.263C14.1827 10.2558 14.1758 10.2558 14.1619 10.2486C14.155 10.2486 14.1481 10.2486 14.1411 10.2486L14.1481 10.2558C14.155 10.2558 14.155 10.2486 14.1619 10.2486C14.1481 10.263 14.1689 10.2774 14.1827 10.2846C14.2036 10.2774 14.2174 10.299 14.2244 10.2846Z" fill="#009640"/>
    <path fill-rule="evenodd" clip-rule="evenodd" d="M13.9746 10.5371C13.9816 10.5227 13.9607 10.5227 13.9399 10.5155C13.9261 10.5155 13.9191 10.5083 13.9052 10.501C13.8983 10.501 13.8914 10.501 13.8914 10.501L13.8983 10.5082C13.9052 10.501 13.9052 10.501 13.9122 10.4938C13.9052 10.5155 13.9191 10.5155 13.933 10.5299C13.9538 10.5371 13.9677 10.5587 13.9746 10.5371Z" fill="#6FB63F"/>
    <path fill-rule="evenodd" clip-rule="evenodd" d="M14.5368 10.4578C14.5298 10.4289 14.5159 10.3929 14.509 10.3641C14.5159 10.3929 14.5229 10.4289 14.5368 10.4578C14.3425 9.81634 13.9955 9.23976 13.5653 8.75688C13.1421 8.26679 12.6425 7.84156 12.1151 7.47399C11.0535 6.73886 9.88778 6.16949 8.70125 5.6794C7.50778 5.18931 6.28656 4.7857 5.05146 4.41093C3.90656 4.05778 2.74778 3.79111 1.59595 3.46679C1.44329 3.43075 1.34615 3.40913 1.33228 3.39471C1.56125 4.04336 2.03309 4.85057 2.69921 5.70823C3.09472 5.74426 3.49023 5.7803 3.88574 5.82354C5.17636 5.96769 6.46003 6.1839 7.72983 6.50102C8.36125 6.65958 8.98574 6.84697 9.60329 7.07039C10.2208 7.29381 10.8245 7.55327 11.4004 7.8776C11.9764 8.19471 12.5315 8.56949 13.0172 9.02354C13.4474 9.43435 13.829 9.91724 14.0857 10.4578C14.1968 10.4938 14.3078 10.5298 14.4119 10.5659C14.5576 10.6091 14.5715 10.6019 14.5368 10.4578Z" fill="#6FB63F"/>
    <path d="M9.28417 -0.0143433C7.63968 -0.0143433 6.07152 0.51899 4.74621 1.52079C4.62132 1.61449 4.49642 1.71539 4.37152 1.82349C4.62826 1.91719 4.90581 2.01809 5.20417 2.1334C6.39764 1.23971 7.80622 0.764035 9.27724 0.764035C13.1144 0.764035 16.2368 4.00728 16.2368 7.99286C16.2368 11.9784 13.1144 15.2217 9.27724 15.2217C5.76622 15.2217 2.78948 12.4541 2.36622 8.86493C2.08866 8.64151 1.82499 8.41809 1.5752 8.18746C1.58213 8.33881 1.58213 8.49737 1.59601 8.64151C1.74866 10.6379 2.61601 12.4902 4.03846 13.8595C5.46785 15.2361 7.32744 15.9929 9.27724 15.9929C13.5238 15.9929 16.9793 12.4037 16.9793 7.99286C16.9862 3.57485 13.5307 -0.0143433 9.28417 -0.0143433Z" fill="#006241"/>
    <path fill-rule="evenodd" clip-rule="evenodd" d="M13.8291 11.6469C13.4613 11.4091 13.0935 11.1784 12.705 10.9694C12.1013 10.6307 11.4838 10.3064 10.8454 10.0181C10.214 9.72258 9.56865 9.44871 8.90946 9.18925C8.62498 9.08114 8.34049 8.97303 8.056 8.87213C7.88947 8.81447 7.84783 8.74961 8.08375 8.81447C8.37518 8.90096 8.66661 8.99465 8.9511 9.08835C9.62416 9.31177 10.2903 9.55682 10.9495 9.81628C11.6086 10.0757 12.254 10.364 12.8923 10.6739C13.3989 10.919 13.8846 11.1856 14.3633 11.4739C14.3772 11.4739 14.3911 11.4811 14.4119 11.4883C14.5091 11.5532 14.6131 11.6181 14.7103 11.6757C14.7242 11.6829 14.738 11.6901 14.7519 11.6974C14.8005 11.7334 14.8491 11.7622 14.9046 11.7983C14.9809 11.6757 15.0572 11.5532 15.1266 11.4235C14.9254 11.2721 14.738 11.128 14.5923 11.0127C14.3564 10.8253 14.1968 10.6883 14.1829 10.6451C14.1691 10.6091 14.1482 10.573 14.1344 10.5442C14.1482 10.573 14.1621 10.6091 14.176 10.6379C13.8776 10.0397 13.4474 9.52799 12.9478 9.10997C12.4552 8.68474 11.9001 8.3388 11.3242 8.05051C10.7482 7.76222 10.1515 7.50997 9.54089 7.30096C8.93028 7.09195 8.31273 6.90456 7.6813 6.75321C6.43232 6.43609 5.15559 6.21267 3.87191 6.02528C2.75477 5.85231 1.63069 5.75862 0.506607 5.62168C0.215179 5.60006 0.0417096 5.58564 0.027832 5.57123C1.51273 8.25952 8.2711 13.4055 13.8291 11.6469Z" fill="#C9DC90"/>
    <path fill-rule="evenodd" clip-rule="evenodd" d="M16.9863 12.7568C16.7295 12.5839 16.4381 12.382 16.1397 12.1658C16.0634 12.3028 15.9871 12.4325 15.9038 12.5622C16.0287 12.6775 16.1467 12.8001 16.2646 12.937C16.2993 12.9802 16.334 13.0235 16.3548 13.0739C16.3826 13.1244 16.4103 13.1244 16.4589 13.1028C16.6324 13.0163 16.8128 12.937 16.9863 12.8577C17.0556 12.8217 17.0418 12.7929 16.9863 12.7568Z" fill="#C9DC90"/>
  </g>
  <defs>
    <clipPath id="clip0_172_825">
      <rect width="17" height="16" fill="white"/>
    </clipPath>
  </defs>
</svg>