<svg xmlns="http://www.w3.org/2000/svg" width="15" height="15" viewBox="0 0 15 15" fill="none">
  <g clip-path="url(#clip0_1_223)">
    <path d="M6.17375 11.3263C6.34788 11.5005 6.55463 11.6387 6.78219 11.733C7.00976 11.8273 7.25367 11.8759 7.5 11.8759C7.74633 11.8759 7.99025 11.8273 8.21781 11.733C8.44538 11.6387 8.65213 11.5005 8.82625 11.3263L10.8331 9.31938C10.9407 9.20037 10.9984 9.04455 10.9943 8.88416C10.9902 8.72378 10.9246 8.57112 10.811 8.45779C10.6974 8.34447 10.5446 8.27916 10.3843 8.27538C10.2239 8.2716 10.0682 8.32965 9.94938 8.4375L8.12063 10.2669L8.125 0.625C8.125 0.45924 8.05916 0.300269 7.94195 0.183058C7.82474 0.065848 7.66576 0 7.5 0C7.33424 0 7.17527 0.065848 7.05806 0.183058C6.94085 0.300269 6.875 0.45924 6.875 0.625L6.86938 10.255L5.05063 8.4375C4.93335 8.32031 4.77433 8.2545 4.60853 8.25456C4.44274 8.25462 4.28376 8.32054 4.16657 8.43781C4.04937 8.55509 3.98357 8.71412 3.98363 8.87991C3.98369 9.0457 4.0496 9.20468 4.16688 9.32188L6.17375 11.3263Z" fill="#005847"/>
    <path d="M14.375 10C14.2092 10 14.0503 10.0658 13.9331 10.1831C13.8158 10.3003 13.75 10.4592 13.75 10.625V13.125C13.75 13.2908 13.6842 13.4497 13.5669 13.5669C13.4497 13.6842 13.2908 13.75 13.125 13.75H1.875C1.70924 13.75 1.55027 13.6842 1.43306 13.5669C1.31585 13.4497 1.25 13.2908 1.25 13.125V10.625C1.25 10.4592 1.18415 10.3003 1.06694 10.1831C0.949732 10.0658 0.79076 10 0.625 10C0.45924 10 0.300269 10.0658 0.183058 10.1831C0.065848 10.3003 0 10.4592 0 10.625L0 13.125C0 13.6223 0.197544 14.0992 0.549175 14.4508C0.900805 14.8025 1.37772 15 1.875 15H13.125C13.6223 15 14.0992 14.8025 14.4508 14.4508C14.8025 14.0992 15 13.6223 15 13.125V10.625C15 10.4592 14.9342 10.3003 14.8169 10.1831C14.6997 10.0658 14.5408 10 14.375 10Z" fill="#005847"/>
  </g>
  <defs>
    <clipPath id="clip0_1_223">
      <rect width="15" height="15" fill="white"/>
    </clipPath>
  </defs>
</svg>